<svg width="21" height="22" viewBox="0 0 21 22" fill="none" xmlns="http://www.w3.org/2000/svg">
<path d="M21 1.67188C21 1.34375 20.8594 1.0625 20.625 0.828125C20.3906 0.640625 20.1094 0.5 19.8281 0.5H1.17188C0.796875 0.5 0.515625 0.640625 0.328125 0.828125C0.09375 1.0625 0 1.34375 0 1.67188V20.3281C0 20.6562 0.09375 20.9375 0.328125 21.1719C0.515625 21.4062 0.796875 21.5 1.17188 21.5H11.2031V13.3438H8.48438V10.2031H11.2031V7.85938C11.2031 6.54688 11.5781 5.51562 12.3281 4.76562C13.0781 4.0625 14.0625 3.6875 15.2812 3.6875C16.2188 3.6875 17.0625 3.73438 17.7188 3.78125V6.64062H16.0312C15.4219 6.64062 15 6.78125 14.7656 7.0625C14.5781 7.29688 14.4844 7.67188 14.4844 8.1875V10.2031H17.625L17.2031 13.3438H14.4844V21.5H19.8281C20.1562 21.5 20.4375 21.4062 20.6719 21.1719C20.8594 20.9375 21 20.6562 21 20.3281V1.67188Z" fill="#FFCB47"/>
</svg>
